<?xml version="1.0"?>
<svg xmlns="http://www.w3.org/2000/svg" xmlns:lc="http://www.librecad.org" xmlns:xlink="http://www.w3.org/1999/xlink" width="120mm" height="247.75mm" viewBox="0 0 120 247.75">
    <g lc:layername="0" lc:is_locked="false" lc:is_construction="false" fill="none" stroke="black" stroke-width="1">
        <path d="M15,41.9 L20.95,41.9 L20.95,45 L26.9,45 L26.9,32.2 L30,32.2 L30,22.5 L26.9,22.5 L26.9,12.8 L30,12.8 L30,0 L20.95,0 L20.95,3.1 L15,3.1 L15,0 L9.05,0 L9.05,3.1 L0,3.1 L0,12.8 L3.1,12.8 L3.1,22.5 L0,22.5 L0,32.2 L3.1,32.2 L3.1,41.9 L9.05,41.9 L9.05,45 L15,45 L15,41.9 Z "/>
        <path d="M15,88.45 L20.95,88.45 L20.95,91.55 L26.9,91.55 L26.9,78.75 L30,78.75 L30,69.05 L26.9,69.05 L26.9,59.35 L30,59.35 L30,49.65 L26.9,49.65 L26.9,46.55 L20.95,46.55 L20.95,49.65 L15,49.65 L15,46.55 L9.05,46.55 L9.05,49.65 L0,49.65 L0,59.35 L3.1,59.35 L3.1,69.05 L0,69.05 L0,78.75 L3.1,78.75 L3.1,88.45 L9.05,88.45 L9.05,91.55 L15,91.55 L15,88.45 Z "/>
        <path d="M60,120 L88.45,120 L88.45,123.1 L120,123.1 L120,114.05 L116.9,114.05 L116.9,108.1 L120,108.1 L120,102.15 L116.9,102.15 L116.9,96.2 L88.45,96.2 L88.45,93.1 L60,93.1 L60,96.2 L31.55,96.2 L31.55,93.1 L0,93.1 L0,96.2 L3.1,96.2 L3.1,102.15 L0,102.15 L0,108.1 L3.1,108.1 L3.1,114.05 L0,114.05 L0,120 L31.55,120 L31.55,123.1 L60,123.1 L60,120 Z "/>
        <path d="M31.55,151.55 L60,151.55 L60,154.65 L88.45,154.65 L88.45,151.55 L120,151.55 L120,145.6 L116.9,145.6 L116.9,139.65 L120,139.65 L120,133.7 L116.9,133.7 L116.9,127.75 L88.45,127.75 L88.45,124.65 L60,124.65 L60,127.75 L31.55,127.75 L31.55,124.65 L3.1,124.65 L3.1,133.7 L0,133.7 L0,139.65 L3.1,139.65 L3.1,145.6 L0,145.6 L0,151.55 L3.10000076,151.55 L3.10000076,154.65 L31.55,154.65 L31.55,151.55 Z "/>
        <path d="M107.1,144.05 L107.1,136.55 L108.6,136.55 L108.6,144.05 L107.1,144.05 Z "/>
        <path d="M75.1,144.05 L75.1,136.55 L76.6,136.55 L76.6,144.05 L75.1,144.05 Z "/>
        <path d="M79.1,144.05 L79.1,136.55 L80.6,136.55 L80.6,144.05 L79.1,144.05 Z "/>
        <path d="M83.1,144.05 L83.1,136.55 L84.6,136.55 L84.6,144.05 L83.1,144.05 Z "/>
        <path d="M87.1,144.05 L87.1,136.55 L88.6,136.55 L88.6,144.05 L87.1,144.05 Z "/>
        <path d="M95.1,144.05 L95.1,136.55 L96.6,136.55 L96.6,144.05 L95.1,144.05 Z "/>
        <path d="M99.1,144.05 L99.1,136.55 L100.6,136.55 L100.6,144.05 L99.1,144.05 Z "/>
        <path d="M103.1,144.05 L103.1,136.55 L104.6,136.55 L104.6,144.05 L103.1,144.05 Z "/>
        <path d="M63.1,144.05 L63.1,136.55 L64.6,136.55 L64.6,144.05 L63.1,144.05 Z "/>
        <path d="M91.1,144.05 L91.1,136.55 L92.6,136.55 L92.6,144.05 L91.1,144.05 Z "/>
        <path d="M71.1,144.05 L71.1,136.55 L72.6,136.55 L72.6,144.05 L71.1,144.05 Z "/>
        <path d="M67.1,144.05 L67.1,136.55 L68.6,136.55 L68.6,144.05 L67.1,144.05 Z "/>
        <path d="M7.1,152.05 L7.1,146.05 L19.1,146.05 L19.1,152.05 L7.1,152.05 Z "/>
        <path d="M3.1,198.1 L31.55,198.1 L31.55,201.2 L60,201.2 L60,198.1 L88.45,198.1 L88.45,201.2 L120,201.2 L120,188.4 L116.9,188.4 L116.9,178.7 L120,178.7 L120,169 L116.9,169 L116.9,156.2 L88.45,156.2 L88.45,159.3 L60,159.3 L60,156.2 L31.55,156.2 L31.55,159.3 L3.1,159.3 L3.1,169 L0,169 L0,178.7 L3.1,178.7 L3.1,188.4 L0,188.4 L0,198.1 L0,198.1 L0,201.2 L3.1,201.2 L3.1,198.1 Z "/>
        <path d="M43.1,219.65 L43.1,210.75 L56.9,210.75 L56.9,219.65 L43.1,219.65 Z "/>
        <path d="M113.022,223.9959 L112.944,223.9836 L112.868,223.9633 L112.795,223.9352 L112.725,223.8995 L112.659,223.8568 L112.598,223.8074 L112.543,223.7518 L112.493,223.6908 L112.45,223.625 L112.415,223.5551 L112.387,223.4818 L112.366,223.4059 L112.354,223.3284 L112.35,223.25 L112.354,223.1716 L112.366,223.0941 L112.387,223.0182 L112.415,222.9449 L112.45,222.875 L112.493,222.8092 L112.543,222.7482 L112.598,222.6926 L112.659,222.6432 L112.725,222.6005 L112.795,222.5648 L112.868,222.5367 L112.944,222.5164 L113.022,222.5041 L113.1,222.5 L113.178,222.5041 L113.256,222.5164 L113.332,222.5367 L113.405,222.5648 L113.475,222.6005 L113.541,222.6432 L113.602,222.6926 L113.657,222.7482 L113.707,222.8092 L113.75,222.875 L113.785,222.9449 L113.813,223.0182 L113.834,223.0941 L113.846,223.1716 L113.85,223.25 L113.846,223.3284 L113.834,223.4059 L113.813,223.4818 L113.785,223.5551 L113.75,223.625 L113.707,223.6908 L113.657,223.7518 L113.602,223.8074 L113.541,223.8568 L113.475,223.8995 L113.405,223.9352 L113.332,223.9633 L113.256,223.9836 L113.178,223.9959 L113.1,224 L113.022,223.9959 Z "/>
        <path d="M113.022,227.9959 L112.944,227.9836 L112.868,227.9633 L112.795,227.9352 L112.725,227.8995 L112.659,227.8568 L112.598,227.8074 L112.543,227.7518 L112.493,227.6908 L112.45,227.625 L112.415,227.5551 L112.387,227.4818 L112.366,227.4059 L112.354,227.3284 L112.35,227.25 L112.354,227.1716 L112.366,227.0941 L112.387,227.0182 L112.415,226.9449 L112.45,226.875 L112.493,226.8092 L112.543,226.7482 L112.598,226.6926 L112.659,226.6432 L112.725,226.6005 L112.795,226.5648 L112.868,226.5367 L112.944,226.5164 L113.022,226.5041 L113.1,226.5 L113.178,226.5041 L113.256,226.5164 L113.332,226.5367 L113.405,226.5648 L113.475,226.6005 L113.541,226.6432 L113.602,226.6926 L113.657,226.7482 L113.707,226.8092 L113.75,226.875 L113.785,226.9449 L113.813,227.0182 L113.834,227.0941 L113.846,227.1716 L113.85,227.25 L113.846,227.3284 L113.834,227.4059 L113.813,227.4818 L113.785,227.5551 L113.75,227.625 L113.707,227.6908 L113.657,227.7518 L113.602,227.8074 L113.541,227.8568 L113.475,227.8995 L113.405,227.9352 L113.332,227.9633 L113.256,227.9836 L113.178,227.9959 L113.1,228 L113.022,227.9959 Z "/>
        <path d="M60,202.75 L60,205.85 L31.55,205.85 L31.55,202.75 L0,202.75 L0,205.85 L3.1,205.85 L3.1,215.55 L0,215.55 L0,225.25 L3.1,225.25 L3.1,234.95 L0,234.95 L0,244.65 L0,244.65 L0,247.75 L3.1,247.75 L3.1,244.65 L31.55,244.65 L31.55,247.75 L60,247.75 L60,244.65 L88.45,244.65 L88.45,247.75 L116.9,247.75 L116.9,247.75 L120,247.75 L120,244.65 L119.99234687,244.65 L119.99234687,244.64999924 L120,244.64999924 L120,234.95 L116.9,234.95 L116.9,225.25 L120,225.25 L120,215.55 L116.9,215.55 L116.9,205.85 L88.45,205.85 L88.45,202.75 L60,202.75 Z "/>
    </g>
</svg>
